<svg xmlns="http://www.w3.org/2000/svg" width="31.139" height="34"><defs><style>.a{fill:#fff}</style></defs><path class="a" d="M30.82 19.683c1.013-8.531-.487-13.916-3.193-16.352C23.261-.831 8.51-1.446 3.284 3.513.937 5.943.11 9.506.02 13.913s-.2 12.68 7.5 14.922h.01l-.01 3.424s-.052 1.387.834 1.666c1.013.328 1.472-.316 4.624-4.081a28.844 28.844 0 009.779-.743c1.064-.357 7.087-1.154 8.061-9.418zM13.5 27.435s-3.336 4.16-4.374 5.24c-.34.351-.712.318-.706-.378 0-.457.025-5.684.025-5.684-6.525-1.871-6.143-8.909-6.073-12.59s.745-6.7 2.732-8.73C9.689.994 22.62 1.955 25.92 5.052c4.028 3.571 2.594 13.66 2.6 14-.828 6.9-5.708 7.336-6.606 7.635a26.611 26.611 0 01-8.414.748z"/><path class="a" d="M15.346 6.104a.429.429 0 000 .856c4.228.033 7.71 2.979 7.748 8.385a.414.414 0 10.828-.007c-.045-5.824-3.847-9.2-8.575-9.234z"/><path class="a" d="M20.908 14.446a.414.414 0 10.828.02 5.733 5.733 0 00-5.632-6.136.43.43 0 00-.058.856 4.887 4.887 0 014.862 5.26zm-.892 3.654a1.308 1.308 0 00-1.706.245l-.616.8a1.1 1.1 0 01-.9.351c-4.266-1.128-5.407-5.592-5.407-5.592a1.19 1.19 0 01.338-.929l.77-.637a1.418 1.418 0 00.24-1.768 18.394 18.394 0 00-2.109-3.046 1.139 1.139 0 00-1.531-.259h-.013c-1.224.716-2.565 2.057-2.136 3.437.732 1.455 2.076 6.093 6.362 9.6a24.466 24.466 0 006.555 3.748l.013.02c1.333.444 2.63-.948 3.322-2.209v-.01a1.214 1.214 0 00-.243-1.565 16.687 16.687 0 00-2.938-2.183z"/><path class="a" d="M16.686 11.49c1.36.079 2.02.79 2.091 2.249a.415.415 0 10.828-.04 2.841 2.841 0 00-2.874-3.065.429.429 0 00-.045.856z"/></svg>