<svg xmlns="http://www.w3.org/2000/svg" width="41.141" height="24"><path d="M34.14 13.762c-.665-.84-.475-1.214 0-1.965.009-.009 5.5-7.6 6.065-10.169C40.49.689 40.209 0 38.849 0h-4.5a1.931 1.931 0 00-1.956 1.253 36.794 36.794 0 01-5.53 9.036c-1.046 1.027-1.529 1.356-2.1 1.356-.281 0-.718-.329-.718-1.267V1.627C24.046.5 23.726 0 22.778 0H15.7a1.076 1.076 0 00-1.145 1.013c0 1.066 1.62 1.311 1.788 4.311v6.509c0 1.426-.259 1.689-.833 1.689-1.529 0-5.241-5.5-7.44-11.8C7.63.5 7.2 0 6.043 0h-4.5C.259 0 0 .593 0 1.255c0 1.169 1.529 6.982 7.111 14.662C10.831 21.159 16.07 24 20.835 24c2.865 0 3.214-.631 3.214-1.716 0-5.009-.259-5.482 1.176-5.482.665 0 1.81.329 4.485 2.858 3.057 3 3.559 4.341 5.27 4.341h4.5c1.282 0 1.932-.631 1.558-1.875-.857-2.619-6.638-8.004-6.898-8.364z" fill="#fff"/></svg>